  0
SECTION
  2
HEADER
  9
$ACADVER
  1
AC1014
  9
$HANDSEED
  5
FFFF
  9
$MEASUREMENT
 70
     1
  0
ENDSEC
  0
SECTION
  2
TABLES
  0
TABLE
  2
VPORT
  5
8
330
0
100
AcDbSymbolTable
 70
     4
  0
VPORT
  5
2E
330
8
100
AcDbSymbolTableRecord
100
AcDbViewportTableRecord
  2
*ACTIVE
 70
     0
 10
0.0
 20
0.0
 11
1.0
 21
1.0
 12
210.0
 22
148.5
 13
0.0
 23
0.0
 14
10.0
 24
10.0
 15
10.0
 25
10.0
 16
0.0
 26
0.0
 36
1.0
 17
0.0
 27
0.0
 37
0.0
 40
341.0
 41
1.24
 42
50.0
 43
0.0
 44
0.0
 50
0.0
 51
0.0
 71
     0
 72
   100
 73
     1
 74
     3
 75
     0
 76
     0
 77
     0
 78
     0
  0
ENDTAB
  0
TABLE
  2
LTYPE
  5
5
330
0
100
AcDbSymbolTable
 70
     1
  0
LTYPE
  5
14
330
5
100
AcDbSymbolTableRecord
100
AcDbLinetypeTableRecord
  2
BYBLOCK
 70
     0
  3

 72
    65
 73
     0
 40
0.0
  0
LTYPE
  5
15
330
5
100
AcDbSymbolTableRecord
100
AcDbLinetypeTableRecord
  2
BYLAYER
 70
     0
  3

 72
    65
 73
     0
 40
0.0
  0
LTYPE
  5
16
330
5
100
AcDbSymbolTableRecord
100
AcDbLinetypeTableRecord
  2
CONTINUOUS
 70
     0
  3
Solid line
 72
    65
 73
     0
 40
0.0
  0
ENDTAB
  0
TABLE
  2
LAYER
  5
2
100
AcDbSymbolTable
 70
2
  0
LAYER
  5
50
100
AcDbSymbolTableRecord
100
AcDbLayerTableRecord
  2
0
 70
0
  6
CONTINUOUS
  0
LAYER
  5
51
100
AcDbSymbolTableRecord
100
AcDbLayerTableRecord
  2
Layer_1
 70
0
  6
CONTINUOUS
  0
ENDTAB
  0
TABLE
  2
STYLE
  5
3
330
0
100
AcDbSymbolTable
 70
     1
  0
STYLE
  5
11
330
3
100
AcDbSymbolTableRecord
100
AcDbTextStyleTableRecord
  2
STANDARD
 70
     0
 40
0.0
 41
1.0
 50
0.0
 71
     0
 42
2.5
  3
txt
  4

  0
ENDTAB
  0
TABLE
  2
VIEW
  5
6
330
0
100
AcDbSymbolTable
 70
     0
  0
ENDTAB
  0
TABLE
  2
UCS
  5
7
330
0
100
AcDbSymbolTable
 70
     0
  0
ENDTAB
  0
TABLE
  2
APPID
  5
9
330
0
100
AcDbSymbolTable
 70
     2
  0
APPID
  5
12
330
9
100
AcDbSymbolTableRecord
100
AcDbRegAppTableRecord
  2
ACAD
 70
     0
  0
ENDTAB
  0
TABLE
  2
DIMSTYLE
  5
A
330
0
100
AcDbSymbolTable
 70
     1
  0
DIMSTYLE
105
27
330
A
100
AcDbSymbolTableRecord
100
AcDbDimStyleTableRecord
  2
ISO-25
 70
     0
  3

  4

  5

  6

  7

 40
1.0
 41
2.5
 42
0.625
 43
3.75
 44
1.25
 45
0.0
 46
0.0
 47
0.0
 48
0.0
140
2.5
141
2.5
142
0.0
143
0.03937007874016
144
1.0
145
0.0
146
1.0
147
0.625
 71
     0
 72
     0
 73
     0
 74
     0
 75
     0
 76
     0
 77
     1
 78
     8
170
     0
171
     3
172
     1
173
     0
174
     0
175
     0
176
     0
177
     0
178
     0
270
     2
271
     2
272
     2
273
     2
274
     3
340
11
275
     0
280
     0
281
     0
282
     0
283
     0
284
     8
285
     0
286
     0
287
     3
288
     0
  0
ENDTAB
  0
TABLE
  2
BLOCK_RECORD
  5
1
330
0
100
AcDbSymbolTable
 70
     1
  0
BLOCK_RECORD
  5
1F
330
1
100
AcDbSymbolTableRecord
100
AcDbBlockTableRecord
  2
*MODEL_SPACE
  0
BLOCK_RECORD
  5
1B
330
1
100
AcDbSymbolTableRecord
100
AcDbBlockTableRecord
  2
*PAPER_SPACE
  0
ENDTAB
  0
ENDSEC
  0
SECTION
  2
BLOCKS
  0
BLOCK
  5
20
330
1F
100
AcDbEntity
  8
0
100
AcDbBlockBegin
  2
*MODEL_SPACE
 70
     0
 10
0.0
 20
0.0
 30
0.0
  3
*MODEL_SPACE
  1

  0
ENDBLK
  5
21
330
1F
100
AcDbEntity
  8
0
100
AcDbBlockEnd
  0
BLOCK
  5
1C
330
1B
100
AcDbEntity
 67
     1
  8
0
100
AcDbBlockBegin
  2
*PAPER_SPACE
  1

  0
ENDBLK
  5
1D
330
1B
100
AcDbEntity
 67
     1
  8
0
100
AcDbBlockEnd
  0
ENDSEC
  0
SECTION
  2
ENTITIES
  0
LINE
  5
100
100
AcDbEntity
  8
Layer_1
 62
7
100
AcDbLine
 10
4.787789
 20
0.242953
 30
0.0
 11
4.140089
 21
0.242953
 31
0.0
  0
LINE
  5
101
100
AcDbEntity
  8
Layer_1
 62
7
100
AcDbLine
 10
0.788700
 20
0.242953
 30
0.0
 11
0.141000
 21
0.242953
 31
0.0
  0
LINE
  5
102
100
AcDbEntity
  8
Layer_1
 62
7
100
AcDbLine
 10
0.141000
 20
0.242953
 30
0.0
 11
2.053761
 21
5.997817
 31
0.0
  0
LINE
  5
103
100
AcDbEntity
  8
Layer_1
 62
7
100
AcDbLine
 10
2.053761
 20
5.997817
 30
0.0
 11
2.875028
 21
5.997817
 31
0.0
  0
LINE
  5
104
100
AcDbEntity
  8
Layer_1
 62
7
100
AcDbLine
 10
2.875028
 20
5.997817
 30
0.0
 11
4.787789
 21
0.242953
 31
0.0
  0
LINE
  5
105
100
AcDbEntity
  8
Layer_1
 62
7
100
AcDbLine
 10
9.449747
 20
4.053306
 30
0.0
 11
8.932928
 21
4.053306
 31
0.0
  0
SPLINE
  5
106
100
AcDbEntity
  8
Layer_1
 62
7
100
AcDbSpline
 70
0
 71
3
 72
10
 73
6
 74
4
 40
0.000000
 40
0.000000
 40
0.000000
 40
0.000000
 40
2.005522
 40
3.291343
 40
5.341852
 40
5.341852
 40
5.341852
 40
5.341852
 10
4.140089
 20
0.242953
 30
0.0
 10
3.945045
 20
0.983256
 30
0.0
 10
3.624950
 20
2.198197
 30
0.0
 10
1.423716
 20
2.135268
 30
0.0
 10
1.030420
 20
0.963266
 30
0.0
 10
0.788700
 20
0.242953
 30
0.0
 11
4.140089
 21
0.242953
 31
0.0
 11
3.170238
 21
1.998375
 31
0.0
 11
1.884611
 21
1.976033
 31
0.0
 11
0.788700
 21
0.242953
 31
0.0
  0
LINE
  5
107
100
AcDbEntity
  8
Layer_1
 62
7
100
AcDbLine
 10
7.698206
 20
5.480998
 30
0.0
 11
7.698206
 21
0.758362
 31
0.0
  0
LINE
  5
108
100
AcDbEntity
  8
Layer_1
 62
7
100
AcDbLine
 10
7.698206
 20
0.758362
 30
0.0
 11
8.624247
 21
0.758362
 31
0.0
  0
LINE
  5
109
100
AcDbEntity
  8
Layer_1
 62
7
100
AcDbLine
 10
8.624247
 20
0.758362
 30
0.0
 11
8.624247
 21
0.242953
 31
0.0
  0
LINE
  5
10a
100
AcDbEntity
  8
Layer_1
 62
7
100
AcDbLine
 10
8.624247
 20
0.242953
 30
0.0
 11
6.160447
 21
0.242953
 31
0.0
  0
LINE
  5
10b
100
AcDbEntity
  8
Layer_1
 62
7
100
AcDbLine
 10
6.160447
 20
0.242953
 30
0.0
 11
6.160447
 21
0.758362
 31
0.0
  0
LINE
  5
10c
100
AcDbEntity
  8
Layer_1
 62
7
100
AcDbLine
 10
6.160447
 20
0.758362
 30
0.0
 11
7.090370
 21
0.758362
 31
0.0
  0
LINE
  5
10d
100
AcDbEntity
  8
Layer_1
 62
7
100
AcDbLine
 10
7.090370
 20
0.758362
 30
0.0
 11
7.090370
 21
5.480998
 31
0.0
  0
SPLINE
  5
10e
100
AcDbEntity
  8
Layer_1
 62
7
100
AcDbSpline
 70
0
 71
3
 72
10
 73
6
 74
4
 40
0.000000
 40
0.000000
 40
0.000000
 40
0.000000
 40
0.675652
 40
1.274632
 40
2.091700
 40
2.091700
 40
2.091700
 40
2.091700
 10
8.932928
 20
4.053306
 30
0.0
 10
8.865244
 20
4.262698
 30
0.0
 10
8.737557
 20
4.657721
 30
0.0
 10
8.525627
 20
5.400070
 30
0.0
 10
8.000949
 20
5.451387
 30
0.0
 10
7.698206
 20
5.480998
 30
0.0
 11
8.932928
 21
4.053306
 31
0.0
 11
8.729467
 21
4.697596
 31
0.0
 11
8.479517
 21
5.241932
 31
0.0
 11
7.698206
 21
5.480998
 31
0.0
  0
LINE
  5
10f
100
AcDbEntity
  8
Layer_1
 62
7
100
AcDbLine
 10
5.855647
 20
4.053306
 30
0.0
 11
5.339181
 21
4.053306
 31
0.0
  0
LINE
  5
110
100
AcDbEntity
  8
Layer_1
 62
7
100
AcDbLine
 10
5.339181
 20
4.053306
 30
0.0
 11
5.339181
 21
5.997817
 31
0.0
  0
LINE
  5
111
100
AcDbEntity
  8
Layer_1
 62
7
100
AcDbLine
 10
5.339181
 20
5.997817
 30
0.0
 11
9.449747
 21
5.997817
 31
0.0
  0
LINE
  5
112
100
AcDbEntity
  8
Layer_1
 62
7
100
AcDbLine
 10
9.449747
 20
5.997817
 30
0.0
 11
9.449747
 21
4.053306
 31
0.0
  0
LINE
  5
113
100
AcDbEntity
  8
Layer_1
 62
7
100
AcDbLine
 10
14.440847
 20
0.242953
 30
0.0
 11
13.673556
 21
0.242953
 31
0.0
  0
LINE
  5
114
100
AcDbEntity
  8
Layer_1
 62
7
100
AcDbLine
 10
13.673556
 20
0.242953
 30
0.0
 11
11.993628
 21
2.708517
 31
0.0
  0
LINE
  5
115
100
AcDbEntity
  8
Layer_1
 62
7
100
AcDbLine
 10
11.993628
 20
2.708517
 30
0.0
 11
11.099336
 21
2.708517
 31
0.0
  0
LINE
  5
116
100
AcDbEntity
  8
Layer_1
 62
7
100
AcDbLine
 10
11.099336
 20
2.708517
 30
0.0
 11
11.099336
 21
0.242953
 31
0.0
  0
LINE
  5
117
100
AcDbEntity
  8
Layer_1
 62
7
100
AcDbLine
 10
11.099336
 20
0.242953
 30
0.0
 11
10.494322
 21
0.242953
 31
0.0
  0
LINE
  5
118
100
AcDbEntity
  8
Layer_1
 62
7
100
AcDbLine
 10
10.494322
 20
0.242953
 30
0.0
 11
10.494322
 21
3.223925
 31
0.0
  0
LINE
  5
119
100
AcDbEntity
  8
Layer_1
 62
7
100
AcDbLine
 10
10.494322
 20
3.223925
 30
0.0
 11
12.390503
 21
3.223925
 31
0.0
  0
SPLINE
  5
11a
100
AcDbEntity
  8
Layer_1
 62
7
100
AcDbSpline
 70
0
 71
3
 72
10
 73
6
 74
4
 40
0.000000
 40
0.000000
 40
0.000000
 40
0.000000
 40
0.774609
 40
1.310023
 40
2.096902
 40
2.096902
 40
2.096902
 40
2.096902
 10
7.090370
 20
5.480998
 30
0.0
 10
6.790056
 20
5.469686
 30
0.0
 10
6.282165
 20
5.450555
 30
0.0
 10
6.165828
 20
4.667114
 30
0.0
 10
5.971368
 20
4.282302
 30
0.0
 10
5.855647
 20
4.053306
 30
0.0
 11
7.090370
 21
5.480998
 31
0.0
 11
6.341592
 21
5.282625
 31
0.0
 11
6.159925
 21
4.778973
 31
0.0
 11
5.855647
 21
4.053306
 31
0.0
  0
SPLINE
  5
11b
100
AcDbEntity
  8
Layer_1
 62
7
100
AcDbSpline
 70
0
 71
3
 72
16
 73
12
 74
10
 40
0.000000
 40
0.000000
 40
0.000000
 40
0.000000
 40
0.393754
 40
0.737322
 40
1.046089
 40
1.342351
 40
1.655249
 40
2.018178
 40
2.376446
 40
2.686832
 40
2.982592
 40
2.982592
 40
2.982592
 40
2.982592
 10
12.390503
 20
3.223925
 30
0.0
 10
12.521996
 20
3.228624
 30
0.0
 10
12.768223
 20
3.237421
 30
0.0
 10
13.108483
 20
3.326035
 30
0.0
 10
13.392970
 20
3.472105
 30
0.0
 10
13.610163
 20
3.697794
 30
0.0
 10
13.732548
 20
4.004879
 30
0.0
 10
13.764632
 20
4.351229
 30
0.0
 10
13.731723
 20
4.694883
 30
0.0
 10
13.612081
 20
5.003939
 30
0.0
 10
13.460640
 20
5.141285
 30
0.0
 10
13.386747
 20
5.208300
 30
0.0
 11
12.390503
 21
3.223925
 31
0.0
 11
12.783158
 21
3.253324
 31
0.0
 11
13.115213
 21
3.341518
 31
0.0
 11
13.386747
 21
3.488509
 31
0.0
 11
13.590274
 21
3.703795
 31
0.0
 11
13.712505
 21
3.991831
 31
0.0
 11
13.753284
 21
4.352462
 31
0.0
 11
13.712505
 21
4.708401
 31
0.0
 11
13.590274
 21
4.993707
 31
0.0
 11
13.386747
 21
5.208300
 31
0.0
  0
LINE
  5
11c
100
AcDbEntity
  8
Layer_1
 62
7
100
AcDbLine
 10
12.390503
 20
5.480998
 30
0.0
 11
10.494322
 21
5.480998
 31
0.0
  0
LINE
  5
11d
100
AcDbEntity
  8
Layer_1
 62
7
100
AcDbLine
 10
10.494322
 20
5.480998
 30
0.0
 11
10.494322
 21
5.997817
 31
0.0
  0
LINE
  5
11e
100
AcDbEntity
  8
Layer_1
 62
7
100
AcDbLine
 10
10.494322
 20
5.997817
 30
0.0
 11
12.390503
 21
5.997817
 31
0.0
  0
SPLINE
  5
11f
100
AcDbEntity
  8
Layer_1
 62
7
100
AcDbSpline
 70
0
 71
3
 72
10
 73
6
 74
4
 40
0.000000
 40
0.000000
 40
0.000000
 40
0.000000
 40
0.310913
 40
0.655192
 40
1.049016
 40
1.049016
 40
1.049016
 40
1.049016
 10
13.386747
 20
5.208300
 30
0.0
 10
13.298425
 20
5.263481
 30
0.0
 10
13.112301
 20
5.379764
 30
0.0
 10
12.767613
 20
5.465724
 30
0.0
 10
12.521708
 20
5.475684
 30
0.0
 10
12.390503
 20
5.480998
 30
0.0
 11
13.386747
 21
5.208300
 31
0.0
 11
13.115213
 21
5.359747
 31
0.0
 11
12.783158
 21
5.450672
 31
0.0
 11
12.390503
 21
5.480998
 31
0.0
  0
LINE
  5
120
100
AcDbEntity
  8
Layer_1
 62
7
100
AcDbLine
 10
12.708709
 20
2.734623
 30
0.0
 11
14.440847
 21
0.242953
 31
0.0
  0
LINE
  5
121
100
AcDbEntity
  8
Layer_1
 62
7
100
AcDbLine
 10
19.111272
 20
0.242953
 30
0.0
 11
15.433211
 21
0.242953
 31
0.0
  0
LINE
  5
122
100
AcDbEntity
  8
Layer_1
 62
7
100
AcDbLine
 10
15.433211
 20
0.242953
 30
0.0
 11
15.433211
 21
5.997817
 31
0.0
  0
LINE
  5
123
100
AcDbEntity
  8
Layer_1
 62
7
100
AcDbLine
 10
15.433211
 20
5.997817
 30
0.0
 11
19.111272
 21
5.997817
 31
0.0
  0
LINE
  5
124
100
AcDbEntity
  8
Layer_1
 62
7
100
AcDbLine
 10
19.111272
 20
5.997817
 30
0.0
 11
19.111272
 21
5.480998
 31
0.0
  0
LINE
  5
125
100
AcDbEntity
  8
Layer_1
 62
7
100
AcDbLine
 10
19.111272
 20
5.480998
 30
0.0
 11
16.038225
 21
5.480998
 31
0.0
  0
LINE
  5
126
100
AcDbEntity
  8
Layer_1
 62
7
100
AcDbLine
 10
16.038225
 20
5.480998
 30
0.0
 11
16.038225
 21
3.422187
 31
0.0
  0
LINE
  5
127
100
AcDbEntity
  8
Layer_1
 62
7
100
AcDbLine
 10
16.038225
 20
3.422187
 30
0.0
 11
18.303764
 21
3.422187
 31
0.0
  0
LINE
  5
128
100
AcDbEntity
  8
Layer_1
 62
7
100
AcDbLine
 10
18.303764
 20
3.422187
 30
0.0
 11
18.303764
 21
2.906778
 31
0.0
  0
LINE
  5
129
100
AcDbEntity
  8
Layer_1
 62
7
100
AcDbLine
 10
18.303764
 20
2.906778
 30
0.0
 11
16.038225
 21
2.906778
 31
0.0
  0
LINE
  5
12a
100
AcDbEntity
  8
Layer_1
 62
7
100
AcDbLine
 10
16.038225
 20
2.906778
 30
0.0
 11
16.038225
 21
0.758362
 31
0.0
  0
LINE
  5
12b
100
AcDbEntity
  8
Layer_1
 62
7
100
AcDbLine
 10
16.038225
 20
0.758362
 30
0.0
 11
19.111272
 21
0.758362
 31
0.0
  0
LINE
  5
12c
100
AcDbEntity
  8
Layer_1
 62
7
100
AcDbLine
 10
19.111272
 20
0.758362
 30
0.0
 11
19.111272
 21
0.242953
 31
0.0
  0
SPLINE
  5
12d
100
AcDbEntity
  8
Layer_1
 62
7
100
AcDbSpline
 70
0
 71
3
 72
25
 73
21
 74
19
 40
0.000000
 40
0.000000
 40
0.000000
 40
0.000000
 40
0.586660
 40
1.095457
 40
1.552167
 40
1.981914
 40
2.427309
 40
2.932237
 40
3.166050
 40
3.387538
 40
3.600662
 40
3.806655
 40
4.007495
 40
4.206285
 40
4.407736
 40
4.614803
 40
4.830329
 40
5.051582
 40
5.279335
 40
5.515272
 40
5.515272
 40
5.515272
 40
5.515272
 10
12.390503
 20
5.997817
 30
0.0
 10
12.586416
 20
5.990398
 30
0.0
 10
12.952242
 20
5.976544
 30
0.0
 10
13.456191
 20
5.837980
 30
0.0
 10
13.866550
 20
5.607431
 30
0.0
 10
14.173298
 20
5.274012
 30
0.0
 10
14.348275
 20
4.839564
 30
0.0
 10
14.387736
 20
4.442712
 30
0.0
 10
14.370601
 20
4.122601
 30
0.0
 10
14.328282
 20
3.903038
 30
0.0
 10
14.257972
 20
3.700553
 30
0.0
 10
14.160879
 20
3.517346
 30
0.0
 10
14.043898
 20
3.352143
 30
0.0
 10
13.906162
 20
3.205653
 30
0.0
 10
13.747287
 20
3.079255
 30
0.0
 10
13.569629
 20
2.970055
 30
0.0
 10
13.373877
 20
2.881002
 30
0.0
 10
13.164227
 20
2.808531
 30
0.0
 10
12.940896
 20
2.758060
 30
0.0
 10
12.787010
 20
2.742526
 30
0.0
 10
12.708709
 20
2.734623
 30
0.0
 11
12.390503
 21
5.997817
 31
0.0
 11
12.975330
 21
5.951486
 31
0.0
 11
13.464907
 21
5.812962
 31
0.0
 11
13.859470
 21
5.582950
 31
0.0
 11
14.147846
 21
5.264327
 31
0.0
 11
14.321217
 21
4.854059
 31
0.0
 11
14.379111
 21
4.352462
 31
0.0
 11
14.364922
 21
4.119079
 31
0.0
 11
14.322510
 21
3.901690
 31
0.0
 11
14.252111
 21
3.700528
 31
0.0
 11
14.156260
 21
3.518194
 31
0.0
 11
14.039870
 21
3.354519
 31
0.0
 11
13.903567
 21
3.209814
 31
0.0
 11
13.746463
 21
3.083716
 31
0.0
 11
13.570074
 21
2.975256
 31
0.0
 11
13.374400
 21
2.884906
 31
0.0
 11
13.165125
 21
2.813096
 31
0.0
 11
12.942914
 21
2.763159
 31
0.0
 11
12.708709
 21
2.734623
 31
0.0
  0
LINE
  5
12e
100
AcDbEntity
  8
Layer_1
 62
7
100
AcDbLine
 10
20.372100
 20
2.301764
 30
0.0
 11
20.372100
 21
5.997817
 31
0.0
  0
LINE
  5
12f
100
AcDbEntity
  8
Layer_1
 62
7
100
AcDbLine
 10
20.372100
 20
5.997817
 30
0.0
 11
20.977114
 21
5.997817
 31
0.0
  0
LINE
  5
130
100
AcDbEntity
  8
Layer_1
 62
7
100
AcDbLine
 10
20.977114
 20
5.997817
 30
0.0
 11
20.977114
 21
2.293650
 31
0.0
  0
SPLINE
  5
131
100
AcDbEntity
  8
Layer_1
 62
7
100
AcDbSpline
 70
0
 71
3
 72
31
 73
27
 74
25
 40
0.000000
 40
0.000000
 40
0.000000
 40
0.000000
 40
0.316384
 40
0.613974
 40
0.895430
 40
1.161091
 40
1.413705
 40
1.658034
 40
1.895530
 40
2.134860
 40
2.382230
 40
2.643573
 40
2.923350
 40
3.227533
 40
3.533307
 40
3.814343
 40
4.075636
 40
4.321487
 40
4.559442
 40
4.796397
 40
5.038729
 40
5.291992
 40
5.560332
 40
5.843531
 40
6.142171
 40
6.458913
 40
6.458913
 40
6.458913
 40
6.458913
 10
24.050161
 20
2.293650
 30
0.0
 10
24.047916
 20
2.188158
 30
0.0
 10
24.043558
 20
1.983439
 30
0.0
 10
24.006103
 20
1.686724
 30
0.0
 10
23.945346
 20
1.411474
 30
0.0
 10
23.863147
 20
1.157208
 30
0.0
 10
23.750950
 20
0.928036
 30
0.0
 10
23.611251
 20
0.725892
 30
0.0
 10
23.445002
 20
0.550755
 30
0.0
 10
23.250758
 20
0.405691
 30
0.0
 10
23.030156
 20
0.287456
 30
0.0
 10
22.780680
 20
0.201194
 30
0.0
 10
22.502456
 20
0.150955
 30
0.0
 10
22.205660
 20
0.135809
 30
0.0
 10
21.908451
 20
0.150974
 30
0.0
 10
21.629255
 20
0.201049
 30
0.0
 10
21.379793
 20
0.287111
 30
0.0
 10
21.160372
 20
0.405662
 30
0.0
 10
20.968112
 20
0.551236
 30
0.0
 10
20.802050
 20
0.724947
 30
0.0
 10
20.667113
 20
0.929745
 30
0.0
 10
20.556719
 20
1.159911
 30
0.0
 10
20.471663
 20
1.415121
 30
0.0
 10
20.414715
 20
1.693167
 30
0.0
 10
20.378312
 20
1.990943
 30
0.0
 10
20.374211
 20
2.196145
 30
0.0
 10
20.372100
 20
2.301764
 30
0.0
 11
24.050161
 21
2.293650
 31
0.0
 11
24.037762
 21
1.977509
 31
0.0
 11
24.000825
 21
1.682221
 31
0.0
 11
23.939742
 21
1.407473
 31
0.0
 11
23.855768
 21
1.155433
 31
0.0
 11
23.744198
 21
0.928792
 31
0.0
 11
23.604956
 21
0.728023
 31
0.0
 11
23.440966
 21
0.556233
 31
0.0
 11
23.249774
 21
0.412274
 31
0.0
 11
23.031692
 21
0.295517
 31
0.0
 11
22.784904
 21
0.209518
 31
0.0
 11
22.509894
 21
0.158091
 31
0.0
 11
22.206192
 21
0.141000
 31
0.0
 11
21.900895
 21
0.158091
 31
0.0
 11
21.624605
 21
0.209518
 31
0.0
 11
21.377870
 21
0.295517
 31
0.0
 11
21.161512
 21
0.412274
 31
0.0
 11
20.972045
 21
0.556233
 31
0.0
 11
20.808839
 21
0.728023
 31
0.0
 11
20.673830
 21
0.929263
 31
0.0
 11
20.563672
 21
1.157314
 31
0.0
 11
20.478286
 21
1.411706
 31
0.0
 11
20.419399
 21
1.688715
 31
0.0
 11
20.383951
 21
1.985244
 31
0.0
 11
20.372100
 21
2.301764
 31
0.0
  0
LINE
  5
132
100
AcDbEntity
  8
Layer_1
 62
7
100
AcDbLine
 10
23.440914
 20
2.293650
 30
0.0
 11
23.440914
 21
5.997817
 31
0.0
  0
LINE
  5
133
100
AcDbEntity
  8
Layer_1
 62
7
100
AcDbLine
 10
23.440914
 20
5.997817
 30
0.0
 11
24.050161
 21
5.997817
 31
0.0
  0
LINE
  5
134
100
AcDbEntity
  8
Layer_1
 62
7
100
AcDbLine
 10
24.050161
 20
5.997817
 30
0.0
 11
24.050161
 21
2.293650
 31
0.0
  0
SPLINE
  5
135
100
AcDbEntity
  8
Layer_1
 62
7
100
AcDbSpline
 70
0
 71
3
 72
31
 73
27
 74
25
 40
0.000000
 40
0.000000
 40
0.000000
 40
0.000000
 40
0.176961
 40
0.361250
 40
0.553645
 40
0.746262
 40
0.932622
 40
1.115173
 40
1.296584
 40
1.478680
 40
1.665561
 40
1.863887
 40
2.080544
 40
2.323068
 40
2.566582
 40
2.783593
 40
2.981966
 40
3.172132
 40
3.355083
 40
3.535649
 40
3.719061
 40
3.905476
 40
4.097717
 40
4.290112
 40
4.474401
 40
4.651362
 40
4.651362
 40
4.651362
 40
4.651362
 10
20.977114
 20
2.293650
 30
0.0
 10
20.978010
 20
2.234654
 30
0.0
 10
20.979839
 20
2.114218
 30
0.0
 10
20.995413
 20
1.930220
 30
0.0
 10
21.018395
 20
1.741771
 30
0.0
 10
21.058251
 20
1.555100
 30
0.0
 10
21.119061
 20
1.377697
 30
0.0
 10
21.196945
 20
1.211016
 30
0.0
 10
21.300313
 20
1.060067
 30
0.0
 10
21.427437
 20
0.927013
 30
0.0
 10
21.575865
 20
0.808398
 30
0.0
 10
21.757319
 20
0.718580
 30
0.0
 10
21.972011
 20
0.667620
 30
0.0
 10
22.206536
 20
0.652631
 30
0.0
 10
22.441099
 20
0.667656
 30
0.0
 10
22.656489
 20
0.718300
 30
0.0
 10
22.838390
 20
0.809612
 30
0.0
 10
22.990064
 20
0.926075
 30
0.0
 10
23.119134
 20
1.059245
 30
0.0
 10
23.220089
 20
1.212043
 30
0.0
 10
23.300982
 20
1.377137
 30
0.0
 10
23.361996
 20
1.554912
 30
0.0
 10
23.399062
 20
1.742007
 30
0.0
 10
23.422756
 20
1.930192
 30
0.0
 10
23.438151
 20
2.114224
 30
0.0
 10
23.440006
 20
2.234656
 30
0.0
 10
23.440914
 20
2.293650
 30
0.0
 11
20.977114
 21
2.293650
 31
0.0
 11
20.981802
 21
2.116752
 31
0.0
 11
20.996288
 21
1.933033
 31
0.0
 11
21.021211
 21
1.742259
 31
0.0
 11
21.062460
 21
1.554111
 31
0.0
 11
21.122602
 21
1.377722
 31
0.0
 11
21.201481
 21
1.213092
 31
0.0
 11
21.303956
 21
1.063397
 31
0.0
 11
21.429088
 21
0.931105
 31
0.0
 11
21.576484
 21
0.816217
 31
0.0
 11
21.754166
 21
0.728114
 31
0.0
 11
21.964304
 21
0.675367
 31
0.0
 11
22.206192
 21
0.657820
 31
0.0
 11
22.449073
 21
0.675367
 31
0.0
 11
22.659577
 21
0.728114
 31
0.0
 11
22.837311
 21
0.816217
 31
0.0
 11
22.988849
 21
0.931105
 31
0.0
 11
23.115222
 21
1.063397
 31
0.0
 11
23.216195
 21
1.213092
 31
0.0
 11
23.297046
 21
1.377722
 31
0.0
 11
23.357358
 21
1.554111
 31
0.0
 11
23.396817
 21
1.742259
 31
0.0
 11
23.421733
 21
1.933033
 31
0.0
 11
23.436223
 21
2.116752
 31
0.0
 11
23.440914
 21
2.293650
 31
0.0
  0
SPLINE
  5
136
100
AcDbEntity
  8
Layer_1
 62
7
100
AcDbSpline
 70
0
 71
3
 72
22
 73
18
 74
16
 40
0.000000
 40
0.000000
 40
0.000000
 40
0.000000
 40
0.234247
 40
0.458959
 40
0.679899
 40
0.895657
 40
1.109918
 40
1.327162
 40
1.545334
 40
1.766523
 40
1.993566
 40
2.223116
 40
2.452653
 40
2.685449
 40
3.000825
 40
3.303592
 40
3.600000
 40
3.600000
 40
3.600000
 40
3.600000
 10
29.059254
 20
1.742259
 30
0.0
 10
29.056222
 20
1.664096
 30
0.0
 10
29.050281
 20
1.510953
 30
0.0
 10
28.998697
 20
1.288814
 30
0.0
 10
28.914702
 20
1.084076
 30
0.0
 10
28.802489
 20
0.897495
 30
0.0
 10
28.667504
 20
0.728396
 30
0.0
 10
28.510562
 20
0.578275
 30
0.0
 10
28.334233
 20
0.447654
 30
0.0
 10
28.140222
 20
0.338408
 30
0.0
 10
27.931452
 20
0.250654
 30
0.0
 10
27.710943
 20
0.188087
 30
0.0
 10
27.483125
 20
0.149276
 30
0.0
 10
27.223694
 20
0.135667
 30
0.0
 10
26.940047
 20
0.154246
 30
0.0
 10
26.639125
 20
0.212029
 30
0.0
 10
26.452954
 20
0.285351
 30
0.0
 10
26.360856
 20
0.321623
 30
0.0
 11
29.059254
 21
1.742259
 31
0.0
 11
29.042634
 21
1.508602
 31
0.0
 11
28.992618
 21
1.289527
 31
0.0
 11
28.908970
 21
1.085034
 31
0.0
 11
28.798316
 21
0.899812
 31
0.0
 11
28.664613
 21
0.732387
 31
0.0
 11
28.507862
 21
0.581973
 31
0.0
 11
28.332596
 21
0.452046
 31
0.0
 11
28.140083
 21
0.343129
 31
0.0
 11
27.930715
 21
0.255300
 31
0.0
 11
27.710033
 21
0.192114
 31
0.0
 11
27.483707
 21
0.153857
 31
0.0
 11
27.251265
 21
0.141000
 31
0.0
 11
26.936535
 21
0.161174
 31
0.0
 11
26.639837
 21
0.221486
 31
0.0
 11
26.360856
 21
0.321623
 31
0.0
  0
LINE
  5
137
100
AcDbEntity
  8
Layer_1
 62
7
100
AcDbLine
 10
25.717389
 20
0.242953
 30
0.0
 11
25.204803
 21
0.242953
 31
0.0
  0
LINE
  5
138
100
AcDbEntity
  8
Layer_1
 62
7
100
AcDbLine
 10
25.204803
 20
0.242953
 30
0.0
 11
25.204803
 21
1.993084
 31
0.0
  0
LINE
  5
139
100
AcDbEntity
  8
Layer_1
 62
7
100
AcDbLine
 10
25.204803
 20
1.993084
 30
0.0
 11
25.717389
 21
1.993084
 31
0.0
  0
SPLINE
  5
13a
100
AcDbEntity
  8
Layer_1
 62
7
100
AcDbSpline
 70
0
 71
3
 72
10
 73
6
 74
4
 40
0.000000
 40
0.000000
 40
0.000000
 40
0.000000
 40
0.431887
 40
0.533826
 40
0.924990
 40
0.924990
 40
0.924990
 40
0.924990
 10
26.360856
 20
0.321623
 30
0.0
 10
26.257434
 20
0.426951
 30
0.0
 10
26.129601
 20
0.557141
 30
0.0
 10
25.799502
 20
0.611337
 30
0.0
 10
25.753713
 20
0.405911
 30
0.0
 10
25.717389
 20
0.242953
 30
0.0
 11
26.360856
 21
0.321623
 31
0.0
 11
26.009567
 21
0.572866
 31
0.0
 11
25.908281
 21
0.584377
 31
0.0
 11
25.717389
 21
0.242953
 31
0.0
  0
SPLINE
  5
13b
100
AcDbEntity
  8
Layer_1
 62
7
100
AcDbSpline
 70
0
 71
3
 72
67
 73
63
 74
61
 40
0.000000
 40
0.000000
 40
0.000000
 40
0.000000
 40
0.192028
 40
0.378206
 40
0.563953
 40
0.747879
 40
0.929320
 40
1.111606
 40
1.295635
 40
1.481923
 40
1.673404
 40
1.866813
 40
2.057322
 40
2.247831
 40
2.414319
 40
2.573578
 40
2.727471
 40
2.876127
 40
3.020054
 40
3.161021
 40
3.301449
 40
3.440783
 40
3.581845
 40
3.727639
 40
3.878326
 40
4.037169
 40
4.214498
 40
4.378562
 40
4.535598
 40
4.689517
 40
4.846442
 40
5.009669
 40
5.176505
 40
5.348636
 40
5.526751
 40
5.711283
 40
5.897142
 40
6.084385
 40
6.306217
 40
6.528103
 40
6.750341
 40
6.971061
 40
7.184320
 40
7.392243
 40
7.595533
 40
7.796556
 40
7.998955
 40
8.210613
 40
8.438354
 40
8.689285
 40
8.916409
 40
9.130701
 40
9.338755
 40
9.546380
 40
9.750165
 40
9.954574
 40
10.160077
 40
10.370743
 40
10.589808
 40
10.813919
 40
11.036913
 40
11.261198
 40
11.261198
 40
11.261198
 40
11.261198
 10
25.717389
 20
1.993084
 30
0.0
 10
25.720194
 20
1.928996
 30
0.0
 10
25.725718
 20
1.802772
 30
0.0
 10
25.773027
 20
1.619395
 30
0.0
 10
25.849499
 20
1.449810
 30
0.0
 10
25.949912
 20
1.295341
 30
0.0
 10
26.066550
 20
1.154313
 30
0.0
 10
26.200890
 20
1.030024
 30
0.0
 10
26.348578
 20
0.919278
 30
0.0
 10
26.511717
 20
0.826476
 30
0.0
 10
26.686689
 20
0.750256
 30
0.0
 10
26.871581
 20
0.697438
 30
0.0
 10
27.060629
 20
0.664751
 30
0.0
 10
27.243256
 20
0.654890
 30
0.0
 10
27.415442
 20
0.662669
 30
0.0
 10
27.573808
 20
0.686231
 30
0.0
 10
27.723493
 20
0.723955
 30
0.0
 10
27.861347
 20
0.781187
 30
0.0
 10
27.988566
 20
0.850160
 30
0.0
 10
28.105110
 20
0.931743
 30
0.0
 10
28.206177
 20
1.029746
 30
0.0
 10
28.292474
 20
1.141029
 30
0.0
 10
28.361043
 20
1.265903
 30
0.0
 10
28.416616
 20
1.401292
 30
0.0
 10
28.448815
 20
1.550389
 30
0.0
 10
28.459512
 20
1.712780
 30
0.0
 10
28.447475
 20
1.879727
 30
0.0
 10
28.406931
 20
2.042110
 30
0.0
 10
28.335164
 20
2.184318
 30
0.0
 10
28.245482
 20
2.312468
 30
0.0
 10
28.135290
 20
2.426777
 30
0.0
 10
28.005444
 20
2.524879
 30
0.0
 10
27.863738
 20
2.614216
 30
0.0
 10
27.710740
 20
2.694145
 30
0.0
 10
27.545846
 20
2.762170
 30
0.0
 10
27.375302
 20
2.828019
 30
0.0
 10
27.201622
 20
2.894254
 30
0.0
 10
27.016034
 20
2.964173
 30
0.0
 10
26.817162
 20
3.032688
 30
0.0
 10
26.609222
 20
3.110408
 30
0.0
 10
26.400666
 20
3.185432
 30
0.0
 10
26.200009
 20
3.273248
 30
0.0
 10
26.012628
 20
3.377053
 30
0.0
 10
25.838872
 20
3.492267
 30
0.0
 10
25.683504
 20
3.625610
 30
0.0
 10
25.549116
 20
3.777379
 30
0.0
 10
25.431934
 20
3.946525
 30
0.0
 10
25.344365
 20
4.143395
 30
0.0
 10
25.294729
 20
4.369359
 30
0.0
 10
25.279716
 20
4.604874
 30
0.0
 10
25.294813
 20
4.835868
 30
0.0
 10
25.344091
 20
5.048023
 30
0.0
 10
25.430673
 20
5.240409
 30
0.0
 10
25.540094
 20
5.416181
 30
0.0
 10
25.672405
 20
5.574055
 30
0.0
 10
25.825237
 20
5.711054
 30
0.0
 10
25.997099
 20
5.827175
 30
0.0
 10
26.186245
 20
5.923634
 30
0.0
 10
26.391876
 20
5.997210
 30
0.0
 10
26.606957
 20
6.053356
 30
0.0
 10
26.828711
 20
6.087850
 30
0.0
 10
26.977861
 20
6.092030
 30
0.0
 10
27.052652
 20
6.094125
 30
0.0
 11
25.717389
 21
1.993084
 31
0.0
 11
25.732559
 21
1.801656
 31
0.0
 11
25.778067
 21
1.621125
 31
0.0
 11
25.853914
 21
1.451570
 31
0.0
 11
25.953214
 21
1.296753
 31
0.0
 11
26.069291
 21
1.157301
 31
0.0
 11
26.202459
 21
1.032823
 31
0.0
 11
26.350089
 21
0.922952
 31
0.0
 11
26.511674
 21
0.830250
 31
0.0
 11
26.687527
 21
0.754481
 31
0.0
 11
26.873271
 21
0.700571
 31
0.0
 11
27.061053
 21
0.668456
 31
0.0
 11
27.251265
 21
0.657820
 31
0.0
 11
27.417568
 21
0.665676
 31
0.0
 11
27.575089
 21
0.689132
 31
0.0
 11
27.723988
 21
0.728023
 31
0.0
 11
27.861649
 21
0.784127
 31
0.0
 11
27.988022
 21
0.853011
 31
0.0
 11
28.102871
 21
0.934750
 31
0.0
 11
28.203962
 21
1.032222
 31
0.0
 11
28.289061
 21
1.142550
 31
0.0
 11
28.357932
 21
1.265656
 31
0.0
 11
28.411959
 21
1.401070
 31
0.0
 11
28.444663
 21
1.548166
 31
0.0
 11
28.455651
 21
1.706628
 31
0.0
 11
28.441880
 21
1.883422
 31
0.0
 11
28.400513
 21
2.042185
 31
0.0
 11
28.331473
 21
2.183231
 31
0.0
 11
28.242952
 21
2.309147
 31
0.0
 11
28.134125
 21
2.422205
 31
0.0
 11
28.005152
 21
2.522250
 31
0.0
 11
27.864106
 21
2.611360
 31
0.0
 11
27.711458
 21
2.690904
 31
0.0
 11
27.547599
 21
2.760728
 31
0.0
 11
27.375665
 21
2.827743
 31
0.0
 11
27.202007
 21
2.893974
 31
0.0
 11
27.026546
 21
2.959342
 31
0.0
 11
26.817506
 21
3.033582
 31
0.0
 11
26.609171
 21
3.109939
 31
0.0
 11
26.401072
 21
3.187942
 31
0.0
 11
26.199284
 21
3.277378
 31
0.0
 11
26.012546
 21
3.380376
 31
0.0
 11
25.840156
 21
3.496623
 31
0.0
 11
25.686227
 21
3.629411
 31
0.0
 11
25.552524
 21
3.779524
 31
0.0
 11
25.439047
 21
3.947120
 31
0.0
 11
25.353139
 21
4.140560
 31
0.0
 11
25.301882
 21
4.362457
 31
0.0
 11
25.284884
 21
4.612812
 31
0.0
 11
25.301412
 21
4.839334
 31
0.0
 11
25.351258
 21
5.047747
 31
0.0
 11
25.434814
 21
5.238287
 31
0.0
 11
25.544776
 21
5.414401
 31
0.0
 11
25.675748
 21
5.570525
 31
0.0
 11
25.827809
 21
5.707128
 31
0.0
 11
25.997782
 21
5.822630
 31
0.0
 11
26.185473
 21
5.918298
 31
0.0
 11
26.391195
 21
5.993584
 31
0.0
 11
26.608152
 21
6.049754
 31
0.0
 11
26.828638
 21
6.083111
 31
0.0
 11
27.052652
 21
6.094125
 31
0.0
  0
LINE
  5
13c
100
AcDbEntity
  8
Layer_1
 62
7
100
AcDbLine
 10
28.379804
 20
5.997817
 30
0.0
 11
28.914615
 21
5.997817
 31
0.0
  0
LINE
  5
13d
100
AcDbEntity
  8
Layer_1
 62
7
100
AcDbLine
 10
28.914615
 20
5.997817
 30
0.0
 11
28.914615
 21
4.352462
 31
0.0
  0
LINE
  5
13e
100
AcDbEntity
  8
Layer_1
 62
7
100
AcDbLine
 10
28.914615
 20
4.352462
 30
0.0
 11
28.379804
 21
4.352462
 31
0.0
  0
SPLINE
  5
13f
100
AcDbEntity
  8
Layer_1
 62
7
100
AcDbSpline
 70
0
 71
3
 72
10
 73
6
 74
4
 40
0.000000
 40
0.000000
 40
0.000000
 40
0.000000
 40
0.832668
 40
1.179553
 40
1.448991
 40
1.448991
 40
1.448991
 40
1.448991
 10
27.052652
 20
6.094125
 30
0.0
 10
27.326679
 20
6.099504
 30
0.0
 10
27.714866
 20
6.107123
 30
0.0
 10
28.185075
 20
5.711554
 30
0.0
 10
28.320570
 20
5.910739
 30
0.0
 10
28.379804
 20
5.997817
 30
0.0
 11
27.052652
 21
6.094125
 31
0.0
 11
27.872038
 21
5.945998
 31
0.0
 11
28.189773
 21
5.806808
 31
0.0
 11
28.379804
 21
5.997817
 31
0.0
  0
SPLINE
  5
140
100
AcDbEntity
  8
Layer_1
 62
7
100
AcDbSpline
 70
0
 71
3
 72
43
 73
39
 74
37
 40
0.000000
 40
0.000000
 40
0.000000
 40
0.000000
 40
0.169927
 40
0.335573
 40
0.501426
 40
0.666717
 40
0.828470
 40
0.990227
 40
1.154015
 40
1.318923
 40
1.486578
 40
1.657043
 40
1.828003
 40
2.001964
 40
2.155354
 40
2.304835
 40
2.451085
 40
2.592619
 40
2.728818
 40
2.861670
 40
2.992096
 40
3.123368
 40
3.259197
 40
3.400611
 40
3.550675
 40
3.713627
 40
3.856992
 40
3.989961
 40
4.117927
 40
4.251046
 40
4.389458
 40
4.535443
 40
4.689395
 40
4.852323
 40
5.025531
 40
5.206260
 40
5.388891
 40
5.573808
 40
5.573808
 40
5.573808
 40
5.573808
 10
28.379804
 20
4.352462
 30
0.0
 10
28.377569
 20
4.409147
 30
0.0
 10
28.373156
 20
4.521089
 30
0.0
 10
28.335732
 20
4.685139
 30
0.0
 10
28.272294
 20
4.838542
 30
0.0
 10
28.194607
 20
4.983716
 30
0.0
 10
28.096900
 20
5.115063
 30
0.0
 10
27.979963
 20
5.228456
 30
0.0
 10
27.851548
 20
5.330108
 30
0.0
 10
27.709324
 20
5.415674
 30
0.0
 10
27.555705
 20
5.483491
 30
0.0
 10
27.395032
 20
5.539175
 30
0.0
 10
27.225709
 20
5.571695
 30
0.0
 10
27.059499
 20
5.581387
 30
0.0
 10
26.900527
 20
5.574825
 30
0.0
 10
26.751673
 20
5.557312
 30
0.0
 10
26.608824
 20
5.527548
 30
0.0
 10
26.473254
 20
5.486524
 30
0.0
 10
26.348591
 20
5.428911
 30
0.0
 10
26.235967
 20
5.357218
 30
0.0
 10
26.135020
 20
5.272096
 30
0.0
 10
26.049122
 20
5.170465
 30
0.0
 10
25.977424
 20
5.053997
 30
0.0
 10
25.925339
 20
4.920577
 30
0.0
 10
25.894767
 20
4.771621
 30
0.0
 10
25.884946
 20
4.619382
 30
0.0
 10
25.895568
 20
4.472660
 30
0.0
 10
25.932386
 20
4.341908
 30
0.0
 10
25.995722
 20
4.225528
 30
0.0
 10
26.083238
 20
4.124391
 30
0.0
 10
26.184928
 20
4.029049
 30
0.0
 10
26.303840
 20
3.943418
 30
0.0
 10
26.438015
 20
3.866975
 30
0.0
 10
26.583904
 20
3.793356
 30
0.0
 10
26.741790
 20
3.724112
 30
0.0
 10
26.909480
 20
3.661815
 30
0.0
 10
27.079574
 20
3.594972
 30
0.0
 10
27.193798
 20
3.550664
 30
0.0
 10
27.251265
 20
3.528373
 30
0.0
 11
28.379804
 21
4.352462
 31
0.0
 11
28.367809
 21
4.521965
 31
0.0
 11
28.331356
 21
4.683550
 31
0.0
 11
28.269737
 21
4.837531
 31
0.0
 11
28.190517
 21
4.982601
 31
0.0
 11
28.093660
 21
5.112149
 31
0.0
 11
27.978693
 21
5.225939
 31
0.0
 11
27.849825
 21
5.327030
 31
0.0
 11
27.708570
 21
5.412128
 31
0.0
 11
27.555713
 21
5.480998
 31
0.0
 11
27.394088
 21
5.535182
 31
0.0
 11
27.226270
 21
5.567807
 31
0.0
 11
27.052652
 21
5.578717
 31
0.0
 11
26.899376
 21
5.572811
 31
0.0
 11
26.750961
 21
5.554990
 31
0.0
 11
26.607799
 21
5.525095
 31
0.0
 11
26.472712
 21
5.482866
 31
0.0
 11
26.349070
 21
5.425742
 31
0.0
 11
26.237031
 21
5.354350
 31
0.0
 11
26.137822
 21
5.269684
 31
0.0
 11
26.052724
 21
5.169730
 31
0.0
 11
25.981972
 21
5.053784
 31
0.0
 11
25.930140
 21
4.922211
 31
0.0
 11
25.898926
 21
4.775429
 31
0.0
 11
25.888486
 21
4.612812
 31
0.0
 11
25.900794
 21
4.469976
 31
0.0
 11
25.937562
 21
4.342192
 31
0.0
 11
25.998553
 21
4.229695
 31
0.0
 11
26.083677
 21
4.127350
 31
0.0
 11
26.184950
 21
4.033002
 31
0.0
 11
26.303000
 21
3.947120
 31
0.0
 11
26.435997
 21
3.869574
 31
0.0
 11
26.581458
 21
3.796183
 31
0.0
 11
26.740090
 21
3.726634
 31
0.0
 11
26.908679
 21
3.661514
 31
0.0
 11
27.078914
 21
3.595374
 31
0.0
 11
27.251265
 21
3.528373
 31
0.0
  0
SPLINE
  5
141
100
AcDbEntity
  8
Layer_1
 62
7
100
AcDbSpline
 70
0
 71
3
 72
19
 73
15
 74
13
 40
0.000000
 40
0.000000
 40
0.000000
 40
0.000000
 40
0.231462
 40
0.464076
 40
0.698068
 40
0.927568
 40
1.150825
 40
1.368930
 40
1.583245
 40
1.798188
 40
2.016671
 40
2.241488
 40
2.481626
 40
2.744197
 40
2.744197
 40
2.744197
 40
2.744197
 10
27.251265
 20
3.528373
 30
0.0
 10
27.323811
 20
3.502093
 30
0.0
 10
27.469263
 20
3.449404
 30
0.0
 10
27.685452
 20
3.363268
 30
0.0
 10
27.899783
 20
3.274341
 30
0.0
 10
28.106642
 20
3.175774
 30
0.0
 10
28.299486
 20
3.062074
 30
0.0
 10
28.479071
 20
2.937006
 30
0.0
 10
28.641160
 20
2.793521
 30
0.0
 10
28.781358
 20
2.628560
 30
0.0
 10
28.903057
 20
2.445155
 30
0.0
 10
28.996015
 20
2.235780
 30
0.0
 10
29.050157
 20
1.997588
 30
0.0
 10
29.056133
 20
1.829863
 30
0.0
 10
29.059254
 20
1.742259
 30
0.0
 11
27.251265
 21
3.528373
 31
0.0
 11
27.468472
 21
3.448397
 31
0.0
 11
27.684816
 21
3.362933
 31
0.0
 11
27.900377
 21
3.271903
 31
0.0
 11
28.106922
 21
3.171858
 31
0.0
 11
28.299435
 21
3.058799
 31
0.0
 11
28.477523
 21
2.932884
 31
0.0
 11
28.637371
 21
2.790126
 31
0.0
 11
28.777228
 21
2.626908
 31
0.0
 11
28.896623
 21
2.443934
 31
0.0
 11
28.987235
 21
2.238186
 31
0.0
 11
29.041314
 21
2.004216
 31
0.0
 11
29.059254
 21
1.742259
 31
0.0
  0
ENDSEC
  0
SECTION
  2
OBJECTS
  0
DICTIONARY
  5
C
330
0
100
AcDbDictionary
  3
ACAD_GROUP
350
D
  3
ACAD_MLINESTYLE
350
17
  0
DICTIONARY
  5
D
330
C
100
AcDbDictionary
  0
DICTIONARY
  5
1A
330
C
100
AcDbDictionary
  0
DICTIONARY
  5
17
330
C
100
AcDbDictionary
  3
STANDARD
350
18
  0
DICTIONARY
  5
19
330
C
100
AcDbDictionary
  0
ENDSEC
  0
EOF
